<svg width="34" height="35" viewBox="0 0 34 35" fill="none" xmlns="http://www.w3.org/2000/svg">
<circle cx="16.9523" cy="17.7993" r="16.9523" fill="#292E36"/>
<circle cx="16.9524" cy="17.7994" r="15.136" fill="#E1B168"/>
<path d="M12.5204 22.5802C13.2217 22.2792 13.8339 21.8218 14.3569 21.2078C14.8799 20.5939 15.1949 19.9679 15.3019 19.3299C15.3613 18.9928 15.391 18.7039 15.391 18.4632C15.391 18.1863 15.3613 17.9576 15.3019 17.777C14.7432 18.3669 14.036 18.6618 13.1801 18.6618C12.3243 18.6618 11.6289 18.409 11.094 17.9034C10.5592 17.3978 10.2917 16.6996 10.2917 15.8088C10.2917 14.9662 10.577 14.28 11.1475 13.7503C11.7062 13.2206 12.4194 12.9558 13.2871 12.9558C14.4758 12.9558 15.3435 13.3892 15.8903 14.2559C16.1399 14.6291 16.336 15.0865 16.4787 15.6282C16.6213 16.182 16.6926 16.7478 16.6926 17.3256C16.6926 18.5896 16.3717 19.7452 15.7298 20.7925C15.0879 21.8398 14.1311 22.6584 12.8592 23.2483L12.5204 22.5802ZM20.0446 22.5802C20.7459 22.2792 21.3581 21.8218 21.8811 21.2078C22.4041 20.5939 22.7191 19.9679 22.8261 19.3299C22.8855 18.9928 22.9152 18.7039 22.9152 18.4632C22.9152 18.1863 22.8855 17.9576 22.8261 17.777C22.2674 18.3669 21.5602 18.6618 20.7043 18.6618C19.8485 18.6618 19.1531 18.409 18.6182 17.9034C18.0833 17.3978 17.8159 16.6996 17.8159 15.8088C17.8159 14.9662 18.1012 14.28 18.6717 13.7503C19.2304 13.2206 19.9436 12.9558 20.8113 12.9558C22 12.9558 22.8677 13.3892 23.4145 14.2559C23.6641 14.6291 23.8602 15.0865 24.0028 15.6282C24.1455 16.182 24.2168 16.7478 24.2168 17.3256C24.2168 18.5896 23.8959 19.7452 23.254 20.7925C22.6121 21.8398 21.6552 22.6584 20.3834 23.2483L20.0446 22.5802Z" fill="#292E36"/>
</svg>
