<svg width="211" height="61" viewBox="0 0 211 61" fill="none" xmlns="http://www.w3.org/2000/svg">
<path d="M202.891 60.9521H7.79597C3.50584 60.9521 -0.0078125 57.5216 -0.0078125 53.333V7.61802C-0.0078125 3.42939 3.50584 -0.00114286 7.79597 -0.00114286H202.891C207.181 -0.00114286 210.694 3.42939 210.694 7.61802V53.333C210.694 57.5216 207.181 60.9521 202.891 60.9521Z" fill="black"/>
<path d="M202.891 1.21983C206.504 1.21983 209.444 4.09035 209.444 7.61802V53.333C209.444 56.8607 206.504 59.7312 202.891 59.7312H7.79597C4.18282 59.7312 1.24274 56.8607 1.24274 53.333V7.61802C1.24274 4.09035 4.18282 1.21983 7.79597 1.21983H202.891ZM202.891 -0.00114286H7.79597C3.50584 -0.00114286 -0.0078125 3.42939 -0.0078125 7.61802V53.333C-0.0078125 57.5216 3.50584 60.9521 7.79597 60.9521H202.891C207.181 60.9521 210.694 57.5216 210.694 53.333V7.61802C210.694 3.42939 207.181 -0.00114286 202.891 -0.00114286Z" fill="#A6A6A6"/>
<path d="M73.9992 15.6086C73.9992 16.881 73.609 17.9001 72.8403 18.6601C71.9566 19.561 70.8055 20.0144 69.395 20.0144C68.0469 20.0144 66.8958 19.5534 65.9515 18.6448C65.0053 17.7229 64.5332 16.5915 64.5332 15.2372C64.5332 13.8829 65.0053 12.7514 65.9515 11.8371C66.8958 10.9209 68.0469 10.46 69.395 10.46C70.0661 10.46 70.706 10.5952 71.3166 10.8466C71.9253 11.1 72.4209 11.4428 72.7798 11.8657L71.9644 12.6695C71.3381 11.9476 70.4855 11.5914 69.395 11.5914C68.4117 11.5914 67.5591 11.9266 66.8353 12.6028C66.1193 13.281 65.7603 14.1591 65.7603 15.2372C65.7603 16.3153 66.1193 17.201 66.8353 17.8791C67.5591 18.5477 68.4117 18.8906 69.395 18.8906C70.4387 18.8906 71.3166 18.5477 72.0092 17.8715C72.4658 17.4239 72.7252 16.8067 72.7935 16.0181H69.395V14.9172H73.929C73.9836 15.1553 73.9992 15.3857 73.9992 15.6086Z" fill="white" stroke="white" stroke-width="0.16" stroke-miterlimit="10"/>
<path d="M81.1931 11.7918H76.9342V14.6871H80.7737V15.7881H76.9342V18.6834H81.1931V19.8053H75.7285V10.6699H81.1931V11.7918Z" fill="white" stroke="white" stroke-width="0.16" stroke-miterlimit="10"/>
<path d="M86.2692 19.8053H85.0635V11.7918H82.4512V10.6699H88.8834V11.7918H86.2692V19.8053Z" fill="white" stroke="white" stroke-width="0.16" stroke-miterlimit="10"/>
<path d="M93.5371 19.8053V10.6699H94.7408V19.8053H93.5371Z" fill="white" stroke="white" stroke-width="0.16" stroke-miterlimit="10"/>
<path d="M100.078 19.8053H98.8818V11.7918H96.2598V10.6699H102.7V11.7918H100.078V19.8053Z" fill="white" stroke="white" stroke-width="0.16" stroke-miterlimit="10"/>
<path d="M114.878 18.6296C113.955 19.5534 112.811 20.0144 111.448 20.0144C110.076 20.0144 108.933 19.5534 108.01 18.6296C107.089 17.7077 106.631 16.5762 106.631 15.2372C106.631 13.8981 107.089 12.7667 108.01 11.8447C108.933 10.9209 110.076 10.46 111.448 10.46C112.804 10.46 113.947 10.9209 114.87 11.8524C115.798 12.7819 116.257 13.9057 116.257 15.2372C116.257 16.5762 115.798 17.7077 114.878 18.6296ZM108.902 17.8639C109.596 18.5477 110.441 18.8906 111.448 18.8906C112.447 18.8906 113.299 18.5477 113.986 17.8639C114.679 17.1801 115.03 16.302 115.03 15.2372C115.03 14.1724 114.679 13.2943 113.986 12.6105C113.299 11.9267 112.447 11.5838 111.448 11.5838C110.441 11.5838 109.596 11.9267 108.902 12.6105C108.209 13.2943 107.858 14.1724 107.858 15.2372C107.858 16.302 108.209 17.1801 108.902 17.8639Z" fill="white" stroke="white" stroke-width="0.16" stroke-miterlimit="10"/>
<path d="M117.947 19.8053V10.6699H119.41L123.96 17.7748H124.013L123.96 16.0186V10.6699H125.164V19.8053H123.907L119.143 12.3499H119.091L119.143 14.1138V19.8053H117.947Z" fill="white" stroke="white" stroke-width="0.16" stroke-miterlimit="10"/>
<path d="M106.334 33.1455C102.668 33.1455 99.6731 35.8694 99.6731 39.6275C99.6731 43.3552 102.668 46.1076 106.334 46.1076C110.007 46.1076 113.002 43.3552 113.002 39.6275C113.002 35.8694 110.007 33.1455 106.334 33.1455ZM106.334 43.5552C104.322 43.5552 102.592 41.9342 102.592 39.6275C102.592 37.2904 104.322 35.6979 106.334 35.6979C108.345 35.6979 110.083 37.2904 110.083 39.6275C110.083 41.9342 108.345 43.5552 106.334 43.5552ZM91.801 33.1455C88.1274 33.1455 85.1405 35.8694 85.1405 39.6275C85.1405 43.3552 88.1274 46.1076 91.801 46.1076C95.4727 46.1076 98.4615 43.3552 98.4615 39.6275C98.4615 35.8694 95.4727 33.1455 91.801 33.1455ZM91.801 43.5552C89.7876 43.5552 88.0513 41.9342 88.0513 39.6275C88.0513 37.2904 89.7876 35.6979 91.801 35.6979C93.8124 35.6979 95.5429 37.2904 95.5429 39.6275C95.5429 41.9342 93.8124 43.5552 91.801 43.5552ZM74.5078 35.1322V37.8866H81.2445C81.0474 39.4256 80.5207 40.5571 79.713 41.3457C78.7297 42.298 77.1982 43.3552 74.5078 43.3552C70.3621 43.3552 67.1157 40.0885 67.1157 36.0408C67.1157 31.9931 70.3621 28.7264 74.5078 28.7264C76.7495 28.7264 78.3805 29.5817 79.5842 30.6903L81.5722 28.7493C79.8885 27.1797 77.6489 25.974 74.5078 25.974C68.8228 25.974 64.0449 30.4903 64.0449 36.0408C64.0449 41.5914 68.8228 46.1076 74.5078 46.1076C77.5806 46.1076 79.8885 45.1248 81.7029 43.2809C83.5622 41.4657 84.1416 38.9132 84.1416 36.8522C84.1416 36.2122 84.087 35.6237 83.9894 35.1322H74.5078ZM145.222 37.2675C144.674 35.8179 142.982 33.1455 139.537 33.1455C136.123 33.1455 133.28 35.7722 133.28 39.6275C133.28 43.2581 136.093 46.1076 139.865 46.1076C142.914 46.1076 144.674 44.2924 145.397 43.2352L143.134 41.7628C142.379 42.8409 141.351 43.5552 139.865 43.5552C138.388 43.5552 137.328 42.8942 136.649 41.5914L145.528 38.0046L145.222 37.2675ZM136.169 39.4256C136.093 36.9265 138.157 35.6465 139.636 35.6465C140.795 35.6465 141.778 36.2122 142.106 37.0218L136.169 39.4256ZM128.953 45.7133H131.871V26.6654H128.953V45.7133ZM124.173 34.5894H124.075C123.42 33.8313 122.169 33.1455 120.585 33.1455C117.261 33.1455 114.221 35.9951 114.221 39.6485C114.221 43.2809 117.261 46.1076 120.585 46.1076C122.169 46.1076 123.42 45.4162 124.075 44.6352H124.173V45.5648C124.173 48.0429 122.817 49.3743 120.63 49.3743C118.847 49.3743 117.741 48.1172 117.284 47.06L114.746 48.0943C115.478 49.8124 117.415 51.9268 120.63 51.9268C124.052 51.9268 126.939 49.961 126.939 45.1781V33.5398H124.173V34.5894ZM120.835 43.5552C118.824 43.5552 117.14 41.9114 117.14 39.6485C117.14 37.3646 118.824 35.6979 120.835 35.6979C122.817 35.6979 124.38 37.3646 124.38 39.6485C124.38 41.9114 122.817 43.5552 120.835 43.5552ZM158.886 26.6654H151.906V45.7133H154.817V38.4961H158.886C162.119 38.4961 165.289 36.2122 165.289 32.5798C165.289 28.9493 162.111 26.6654 158.886 26.6654ZM158.962 35.8465H154.817V29.315H158.962C161.136 29.315 162.376 31.0769 162.376 32.5798C162.376 34.0541 161.136 35.8465 158.962 35.8465ZM176.956 33.1093C174.853 33.1093 172.666 34.016 171.766 36.0256L174.349 37.0827C174.905 36.0256 175.928 35.6827 177.009 35.6827C178.519 35.6827 180.05 36.5684 180.073 38.1323V38.3323C179.547 38.0351 178.419 37.5951 177.032 37.5951C174.25 37.5951 171.415 39.0904 171.415 41.8809C171.415 44.4333 173.694 46.0771 176.255 46.0771C178.214 46.0771 179.295 45.2143 179.974 44.2105H180.073V45.6829H182.885V38.3761C182.885 34.9989 180.302 33.1093 176.956 33.1093ZM176.605 43.5476C175.653 43.5476 174.326 43.0866 174.326 41.9342C174.326 40.4599 175.98 39.8942 177.412 39.8942C178.694 39.8942 179.295 40.1704 180.073 40.5342C179.845 42.298 178.29 43.5476 176.605 43.5476ZM193.127 33.5265L189.781 41.7838H189.682L186.223 33.5265H183.084L188.281 45.0657L185.316 51.4868H188.357L196.366 33.5265H193.127ZM166.889 45.7133H169.808V26.6654H166.889V45.7133Z" fill="white"/>
<path d="M16.2804 11.4865C15.822 11.9551 15.5566 12.6846 15.5566 13.6294V47.329C15.5566 48.2737 15.822 49.0033 16.2804 49.4718L16.3936 49.5747L35.7353 30.6982V30.2525L16.3936 11.376L16.2804 11.4865Z" fill="url(#paint0_linear_1_4676)"/>
<path d="M42.1744 36.9941L35.7344 30.6988V30.2531L42.1823 23.9578L42.3266 24.0397L49.9626 28.2816C52.1418 29.4855 52.1418 31.4664 49.9626 32.6779L42.3266 36.9122L42.1744 36.9941Z" fill="url(#paint1_linear_1_4676)"/>
<path d="M42.3264 36.9121L35.7341 30.4758L16.2793 49.4722C17.0031 50.2151 18.1834 50.3046 19.5257 49.5618L42.3264 36.9121Z" fill="url(#paint2_linear_1_4676)"/>
<path d="M42.3264 24.0393L19.5257 11.3896C18.1834 10.6543 17.0031 10.7439 16.2793 11.4867L35.7341 30.4756L42.3264 24.0393Z" fill="url(#paint3_linear_1_4676)"/>
<defs>
<linearGradient id="paint0_linear_1_4676" x1="34.018" y1="47.6799" x2="8.45173" y2="21.4942" gradientUnits="userSpaceOnUse">
<stop stop-color="#00A0FF"/>
<stop offset="0.0066" stop-color="#00A1FF"/>
<stop offset="0.2601" stop-color="#00BEFF"/>
<stop offset="0.5122" stop-color="#00D2FF"/>
<stop offset="0.7604" stop-color="#00DFFF"/>
<stop offset="1" stop-color="#00E3FF"/>
</linearGradient>
<linearGradient id="paint1_linear_1_4676" x1="52.8003" y1="30.4738" x2="15.0348" y2="30.4738" gradientUnits="userSpaceOnUse">
<stop stop-color="#FFE000"/>
<stop offset="0.4087" stop-color="#FFBD00"/>
<stop offset="0.7754" stop-color="#FFA500"/>
<stop offset="1" stop-color="#FF9C00"/>
</linearGradient>
<linearGradient id="paint2_linear_1_4676" x1="38.7417" y1="26.9769" x2="4.07181" y2="-8.53309" gradientUnits="userSpaceOnUse">
<stop stop-color="#FF3A44"/>
<stop offset="1" stop-color="#C31162"/>
</linearGradient>
<linearGradient id="paint3_linear_1_4676" x1="11.3821" y1="60.6837" x2="26.8638" y2="44.8271" gradientUnits="userSpaceOnUse">
<stop stop-color="#32A071"/>
<stop offset="0.0685" stop-color="#2DA771"/>
<stop offset="0.4762" stop-color="#15CF74"/>
<stop offset="0.8009" stop-color="#06E775"/>
<stop offset="1" stop-color="#00F076"/>
</linearGradient>
</defs>
</svg>
