<svg width="33" height="40" viewBox="0 0 33 40" fill="none" xmlns="http://www.w3.org/2000/svg">
<path d="M27.0869 21.1465C27.0415 16.2352 31.2114 13.8458 31.402 13.7346C29.0405 10.3776 25.3802 9.91889 24.0939 9.88232C21.0197 9.56689 18.0376 11.6759 16.4716 11.6759C14.8743 11.6759 12.4628 9.9128 9.86364 9.96461C6.51903 10.0149 3.39009 11.9029 1.67402 14.8348C-1.86752 20.8128 0.77379 29.5977 4.16686 34.4297C5.86417 36.7962 7.8475 39.4386 10.4435 39.3456C12.9832 39.2435 13.9319 37.7669 16.9967 37.7669C20.0335 37.7669 20.9243 39.3456 23.5719 39.2862C26.2976 39.2435 28.0137 36.909 29.6516 34.5212C31.613 31.8087 32.4007 29.1375 32.432 29.0003C32.3679 28.979 27.1384 27.0331 27.0869 21.1465Z" fill="white"/>
<path d="M22.0856 6.70361C23.4515 5.03806 24.3862 2.77212 24.1267 0.472656C22.1496 0.557991 19.6771 1.80601 18.2533 3.43499C16.9936 4.87044 15.8683 7.22323 16.159 9.43584C18.3799 9.59736 20.6602 8.34325 22.0856 6.70361Z" fill="white"/>
</svg>
