<svg width="17" height="16" viewBox="0 0 17 16" fill="none" xmlns="http://www.w3.org/2000/svg">
<path d="M11.9975 1.33493C12.9146 1.33757 13.7934 1.68957 14.4419 2.31406C15.0904 2.93854 15.456 3.78477 15.4587 4.66792V11.3332C15.456 12.2163 15.0904 13.0626 14.4419 13.6871C13.7934 14.3115 12.9146 14.6635 11.9975 14.6662H5.0759C4.15878 14.6635 3.28 14.3115 2.6315 13.6871C1.983 13.0626 1.61746 12.2163 1.61472 11.3332V4.66792C1.61746 3.78477 1.983 2.93854 2.6315 2.31406C3.28 1.68957 4.15878 1.33757 5.0759 1.33493H11.9975ZM11.9975 0.00195312H5.0759C2.41086 0.00195313 0.230469 2.10159 0.230469 4.66792V11.3332C0.230469 13.8995 2.41086 15.9992 5.0759 15.9992H11.9975C14.6626 15.9992 16.843 13.8995 16.843 11.3332V4.66792C16.843 2.10159 14.6626 0.00195312 11.9975 0.00195312Z" fill="#292E36"/>
<path d="M13.035 4.66811C12.8297 4.66811 12.6289 4.60947 12.4582 4.49961C12.2874 4.38975 12.1544 4.23359 12.0758 4.0509C11.9972 3.86821 11.9766 3.66717 12.0167 3.47323C12.0568 3.27928 12.1556 3.10113 12.3008 2.9613C12.4461 2.82147 12.6311 2.72625 12.8325 2.68767C13.0339 2.64909 13.2426 2.66889 13.4324 2.74456C13.6221 2.82024 13.7842 2.94839 13.8983 3.11281C14.0124 3.27723 14.0733 3.47054 14.0733 3.66828C14.0736 3.79966 14.0469 3.9298 13.9949 4.05123C13.9428 4.17267 13.8663 4.283 13.7699 4.3759C13.6734 4.46879 13.5588 4.54243 13.4327 4.59258C13.3066 4.64272 13.1715 4.66839 13.035 4.66811ZM8.53593 5.33442C9.08356 5.33442 9.6189 5.4908 10.0742 5.78378C10.5296 6.07676 10.8845 6.49318 11.094 6.98038C11.3036 7.46759 11.3584 8.0037 11.2516 8.52091C11.1448 9.03813 10.8811 9.51322 10.4938 9.88611C10.1066 10.259 9.61322 10.5129 9.07611 10.6158C8.53901 10.7187 7.98228 10.6659 7.47633 10.4641C6.97039 10.2623 6.53795 9.92054 6.2337 9.48207C5.92946 9.04359 5.76706 8.52809 5.76706 8.00074C5.76785 7.29382 6.05982 6.61607 6.57891 6.1162C7.09801 5.61633 7.80183 5.33518 8.53593 5.33442ZM8.53593 4.00144C7.71452 4.00144 6.91156 4.23599 6.22858 4.67544C5.54561 5.11489 5.01329 5.7395 4.69895 6.47027C4.38461 7.20105 4.30237 8.00518 4.46262 8.78097C4.62286 9.55675 5.01841 10.2694 5.59924 10.8287C6.18006 11.388 6.92007 11.7689 7.7257 11.9232C8.53133 12.0775 9.36638 11.9983 10.1253 11.6956C10.8841 11.3929 11.5328 10.8803 11.9891 10.2226C12.4455 9.56495 12.6891 8.79173 12.6891 8.00074C12.6891 6.94006 12.2515 5.92282 11.4726 5.17281C10.6938 4.42279 9.63741 4.00144 8.53593 4.00144Z" fill="#292E36"/>
</svg>
