<svg width="18" height="18" viewBox="0 0 18 18" fill="none" xmlns="http://www.w3.org/2000/svg">
<path d="M8.74368 0.140625C4.08286 0.140625 0.303711 3.91809 0.303711 8.57683C0.303711 12.0304 2.38356 14.9981 5.35639 16.305C5.33378 15.7175 5.35262 15.0094 5.50334 14.3692C5.66535 13.6837 6.58847 9.7707 6.58847 9.7707C6.58847 9.7707 6.31719 9.23214 6.31719 8.43748C6.31719 7.18711 7.04062 6.25311 7.9449 6.25311C8.71354 6.25311 9.08279 6.82933 9.08279 7.51854C9.08279 8.2906 8.5892 9.44305 8.33675 10.5126C8.12575 11.409 8.78513 12.1359 9.67057 12.1359C11.2681 12.1359 12.3457 10.0833 12.3457 7.65035C12.3457 5.80117 11.0986 4.41899 8.83411 4.41899C6.27574 4.41899 4.67818 6.32843 4.67818 8.46008C4.67818 9.19448 4.89671 9.71421 5.23582 10.1134C5.3903 10.298 5.41291 10.3733 5.35639 10.5842C5.31494 10.7386 5.22451 11.1115 5.18307 11.2621C5.12655 11.4768 4.95323 11.5521 4.76107 11.473C3.58174 10.9909 3.03163 9.70291 3.03163 8.24917C3.03163 5.85389 5.05496 2.98031 9.06395 2.98031C12.2855 2.98031 14.4068 5.31157 14.4068 7.8123C14.4068 11.1228 12.5643 13.5934 9.85143 13.5934C8.93961 13.5934 8.08431 13.1 7.79042 12.5426C7.79042 12.5426 7.3006 14.4859 7.1951 14.8626C7.01801 15.5141 6.6676 16.1619 6.34733 16.6703C7.12422 16.8994 7.92993 17.0161 8.73991 17.0168C13.4007 17.0168 17.1799 13.2393 17.1799 8.5806C17.1799 3.92185 13.4045 0.140625 8.74368 0.140625Z" fill="#292E36"/>
</svg>
