<svg width="18" height="18" viewBox="0 0 18 18" fill="none" xmlns="http://www.w3.org/2000/svg">
<path d="M8.95954 0C4.02474 0 0.0234375 3.99952 0.0234375 8.93212C0.0234375 12.5887 2.22555 15.7309 5.37313 17.1146C5.3492 16.4925 5.36914 15.7429 5.52872 15.065C5.70026 14.3392 6.67764 10.1962 6.67764 10.1962C6.67764 10.1962 6.39041 9.62595 6.39041 8.78458C6.39041 7.46071 7.15636 6.4718 8.1138 6.4718C8.92763 6.4718 9.31858 7.08189 9.31858 7.81161C9.31858 8.62906 8.79598 9.84925 8.52869 10.9817C8.30529 11.9308 9.00342 12.7004 9.94092 12.7004C11.6324 12.7004 12.7733 10.5271 12.7733 7.95118C12.7733 5.99329 11.4529 4.52986 9.05529 4.52986C6.34653 4.52986 4.65505 6.55155 4.65505 8.8085C4.65505 9.58608 4.88643 10.1364 5.24547 10.559C5.40904 10.7544 5.43297 10.8342 5.37313 11.0575C5.32925 11.221 5.23351 11.6157 5.18962 11.7752C5.12978 12.0025 4.94627 12.0823 4.74282 11.9985C3.49416 11.4881 2.91171 10.1244 2.91171 8.5852C2.91171 6.04912 5.05399 3.00661 9.29864 3.00661C12.7095 3.00661 14.9555 5.47491 14.9555 8.12264C14.9555 11.6277 13.0047 14.2435 10.1324 14.2435C9.16699 14.2435 8.26141 13.7212 7.95024 13.131C7.95024 13.131 7.43163 15.1886 7.31993 15.5873C7.13243 16.2772 6.76142 16.963 6.42233 17.5014C7.24488 17.7439 8.09795 17.8675 8.95555 17.8682C13.8904 17.8682 17.8917 13.8687 17.8917 8.9361C17.8917 4.0035 13.8943 0 8.95954 0Z" fill="#E1B168"/>
</svg>
