<svg width="19" height="16" viewBox="0 0 19 16" fill="none" xmlns="http://www.w3.org/2000/svg">
<path d="M18.4114 2.55049C17.7437 2.8406 17.0373 3.03173 16.3144 3.11784C17.0741 2.673 17.6454 1.9663 17.9212 1.13027C17.2029 1.55025 16.4185 1.84493 15.6014 2.00169C15.2573 1.64108 14.8435 1.35421 14.3851 1.15851C13.9267 0.962809 13.4333 0.862366 12.9348 0.863288C10.9169 0.863288 9.2838 2.47262 9.2838 4.45648C9.28237 4.73242 9.31399 5.00755 9.37799 5.27598C7.93095 5.20814 6.51401 4.839 5.21781 4.19218C3.92161 3.54536 2.7747 2.6351 1.85045 1.51963C1.5262 2.06625 1.35472 2.68993 1.35393 3.32549C1.35393 4.57143 2.00397 5.67275 2.98552 6.31797C2.40398 6.30416 1.83436 6.15025 1.32501 5.86928V5.91378C1.32501 7.6566 2.58578 9.10649 4.25444 9.43651C3.94065 9.52016 3.6173 9.56255 3.29255 9.56259C3.06212 9.56299 2.83221 9.54063 2.60617 9.49584C3.07006 10.9235 4.4202 11.9618 6.01952 11.9914C4.71996 12.993 3.12443 13.5343 1.48372 13.5303C1.19249 13.5299 0.901527 13.5125 0.612305 13.4784C2.28141 14.5442 4.22161 15.1079 6.20196 15.1026C12.927 15.1026 16.6011 9.62563 16.6011 4.8755C16.6011 4.71976 16.597 4.56401 16.5896 4.41198C17.3027 3.90473 17.9196 3.27436 18.4114 2.55049Z" fill="#292E36"/>
</svg>
