<svg width="20" height="16" viewBox="0 0 20 16" fill="none" xmlns="http://www.w3.org/2000/svg">
<path d="M19.0236 2.18239C18.3167 2.48955 17.5687 2.69191 16.8034 2.78308C17.6077 2.3121 18.2126 1.56385 18.5046 0.678683C17.7441 1.12335 16.9135 1.43535 16.0484 1.60132C15.6841 1.21952 15.2459 0.915784 14.7606 0.708579C14.2753 0.501374 13.7528 0.395027 13.2251 0.396003C11.0885 0.396003 9.35946 2.09994 9.35946 4.20041C9.35795 4.49258 9.39143 4.78388 9.45918 5.06809C7.92709 4.99626 6.42685 4.60543 5.05446 3.92058C3.68207 3.23574 2.46774 2.27197 1.48915 1.09093C1.14584 1.66968 0.964284 2.33003 0.963447 3.00295C0.963447 4.32212 1.6517 5.48818 2.69094 6.17133C2.07522 6.15671 1.47211 5.99375 0.932823 5.69627V5.74338C0.932823 7.58866 2.26771 9.12377 4.03446 9.4732C3.70223 9.56176 3.35986 9.60664 3.01602 9.60668C2.77205 9.60711 2.52862 9.58344 2.2893 9.53601C2.78046 11.0476 4.20996 12.1469 5.9033 12.1783C4.52734 13.2387 2.83802 13.8119 1.10086 13.8076C0.792511 13.8072 0.484447 13.7888 0.178223 13.7527C1.94544 14.8811 3.99969 15.478 6.09646 15.4723C13.2169 15.4723 17.1069 9.67343 17.1069 4.64407C17.1069 4.47917 17.1026 4.31427 17.0947 4.1533C17.8497 3.61623 18.5029 2.94881 19.0236 2.18239Z" fill="#E1B168"/>
</svg>
