<svg width="15" height="14" viewBox="0 0 15 14" fill="none" xmlns="http://www.w3.org/2000/svg">
<path d="M12.8247 2.84229C12.5308 2.84229 12.2435 2.75889 11.9992 2.60266C11.7549 2.44642 11.5644 2.22435 11.452 1.96454C11.3395 1.70472 11.3101 1.41883 11.3674 1.14302C11.4248 0.8672 11.5663 0.613846 11.7741 0.414993C11.9818 0.21614 12.2466 0.0807201 12.5348 0.0258567C12.823 -0.0290066 13.1217 -0.000848769 13.3932 0.10677C13.6647 0.214388 13.8968 0.396633 14.06 0.630459C14.2233 0.864286 14.3104 1.13919 14.3104 1.42041C14.3108 1.60725 14.2727 1.79232 14.1982 1.96501C14.1237 2.1377 14.0142 2.29461 13.8762 2.42672C13.7381 2.55884 13.5742 2.66356 13.3937 2.73487C13.2133 2.80618 13.0199 2.84269 12.8247 2.84229ZM6.38647 3.78986C7.17013 3.78986 7.93619 4.01225 8.58777 4.4289C9.23936 4.84556 9.74721 5.43776 10.0471 6.13063C10.347 6.82349 10.4255 7.58591 10.2726 8.32145C10.1197 9.05699 9.74233 9.73263 9.1882 10.2629C8.63407 10.7932 7.92806 11.1544 7.15946 11.3007C6.39086 11.447 5.59419 11.3719 4.87018 11.0849C4.14617 10.7979 3.52736 10.3119 3.09198 9.68833C2.6566 9.06477 2.42422 8.33165 2.42422 7.5817C2.42534 6.57637 2.84315 5.61253 3.58598 4.90165C4.3288 4.19078 5.33596 3.79094 6.38647 3.78986ZM6.38647 1.8942C5.21103 1.8942 4.06199 2.22777 3.08465 2.85272C2.10732 3.47767 1.34557 4.36593 0.895754 5.40519C0.445934 6.44444 0.328241 7.58801 0.557557 8.69128C0.786873 9.79454 1.3529 10.808 2.18406 11.6034C3.01522 12.3988 4.07418 12.9405 5.22702 13.1599C6.37987 13.3794 7.57483 13.2667 8.66079 12.8363C9.74675 12.4058 10.6749 11.6768 11.328 10.7415C11.981 9.8062 12.3296 8.70658 12.3296 7.5817C12.3296 6.07328 11.7034 4.62664 10.5889 3.56003C9.47433 2.49342 7.96268 1.8942 6.38647 1.8942Z" fill="white"/>
</svg>
