<svg width="14" height="12" viewBox="0 0 14 12" fill="none" xmlns="http://www.w3.org/2000/svg">
<path d="M2.3095 10.5802C3.0108 10.2792 3.62296 9.82177 4.14597 9.20783C4.66898 8.5939 4.98397 7.96792 5.09095 7.32991C5.15038 6.99285 5.1801 6.70394 5.1801 6.46318C5.1801 6.1863 5.15038 5.95758 5.09095 5.77701C4.53228 6.36687 3.82503 6.6618 2.9692 6.6618C2.11337 6.6618 1.41801 6.40901 0.88311 5.90341C0.348215 5.39782 0.080768 4.69962 0.0807679 3.80881C0.0807688 2.96615 0.366045 2.27999 0.9366 1.75032C1.49527 1.22065 2.20846 0.955812 3.07618 0.955812C4.26483 0.955812 5.13255 1.38918 5.67933 2.25591C5.92895 2.62909 6.12508 3.08653 6.26772 3.62824C6.41036 4.18198 6.48167 4.74777 6.48167 5.32559C6.48167 6.58958 6.16074 7.74522 5.51886 8.79252C4.87699 9.83983 3.92012 10.6584 2.64826 11.2483L2.3095 10.5802ZM9.83368 10.5802C10.535 10.2792 11.1471 9.82177 11.6702 9.20783C12.1932 8.5939 12.5082 7.96792 12.6151 7.32991C12.6746 6.99285 12.7043 6.70394 12.7043 6.46318C12.7043 6.1863 12.6746 5.95758 12.6151 5.77701C12.0565 6.36687 11.3492 6.6618 10.4934 6.6618C9.63755 6.6618 8.94219 6.40901 8.4073 5.90341C7.8724 5.39782 7.60495 4.69962 7.60495 3.80881C7.60495 2.96615 7.89023 2.27999 8.46078 1.75032C9.01945 1.22065 9.73265 0.955812 10.6004 0.955812C11.789 0.955812 12.6567 1.38918 13.2035 2.25591C13.4531 2.62909 13.6493 3.08653 13.7919 3.62824C13.9345 4.18198 14.0059 4.74777 14.0059 5.32559C14.0059 6.58958 13.6849 7.74522 13.043 8.79252C12.4012 9.83983 11.4443 10.6584 10.1724 11.2483L9.83368 10.5802Z" fill="#292E36"/>
</svg>
